<mxfile host="65bd71144e">
    <diagram id="pIaEtrtLPv3HG8r1JEND" name="Page-1">
        <mxGraphModel dx="520" dy="429" grid="1" gridSize="10" guides="1" tooltips="1" connect="1" arrows="1" fold="1" page="1" pageScale="1" pageWidth="850" pageHeight="1100" math="0" shadow="0">
            <root>
                <mxCell id="0"/>
                <mxCell id="1" parent="0"/>
                <mxCell id="2" value="" style="rounded=0;whiteSpace=wrap;html=1;" parent="1" vertex="1">
                    <mxGeometry x="80" y="80" width="400" height="300" as="geometry"/>
                </mxCell>
                <mxCell id="3" value="&lt;span style=&quot;color: rgb(255 , 255 , 255) ; font-family: &amp;#34;roboto&amp;#34; , &amp;#34;helvetica&amp;#34; , &amp;#34;arial&amp;#34; , sans-serif ; font-size: 20px ; letter-spacing: 0.4px&quot;&gt;‿︵‿︵‿︵ʚ˚̣̣̣͙ɞ・❉・ ʚ˚̣̣̣͙ɞ‿︵‿︵‿︵&lt;/span&gt;" style="rounded=0;whiteSpace=wrap;html=1;" parent="1" vertex="1">
                    <mxGeometry x="80" y="80" width="400" height="40" as="geometry"/>
                </mxCell>
                <mxCell id="6" value="Calculate" style="labelPosition=center;verticalLabelPosition=middle;align=center;html=1;shape=mxgraph.basic.button;dx=10;" parent="1" vertex="1">
                    <mxGeometry x="90" y="240" width="100" height="40" as="geometry"/>
                </mxCell>
                <mxCell id="7" value="Enter your age to find&amp;nbsp; out!" style="text;html=1;strokeColor=none;fillColor=none;align=center;verticalAlign=middle;whiteSpace=wrap;rounded=0;labelBackgroundColor=none;" vertex="1" parent="1">
                    <mxGeometry x="70" y="160" width="180" height="30" as="geometry"/>
                </mxCell>
                <mxCell id="9" value="What movies can you watch" style="text;strokeColor=none;fillColor=none;html=1;fontSize=24;fontStyle=1;verticalAlign=middle;align=center;labelBackgroundColor=none;" vertex="1" parent="1">
                    <mxGeometry x="200" y="130" width="100" height="40" as="geometry"/>
                </mxCell>
                <mxCell id="11" value="" style="rounded=1;arcSize=9;align=left;spacingLeft=5;strokeColor=#4C9AFF;html=1;strokeWidth=2;fontSize=12;labelBackgroundColor=none;" vertex="1" parent="1">
                    <mxGeometry x="90" y="200" width="220" height="20" as="geometry"/>
                </mxCell>
            </root>
        </mxGraphModel>
    </diagram>
    <diagram name="Copy of Copy of Copy of Page-1" id="YE88N3Rnp0F7cSv-j2xW">
        <mxGraphModel dx="520" dy="429" grid="1" gridSize="10" guides="1" tooltips="1" connect="1" arrows="1" fold="1" page="1" pageScale="1" pageWidth="850" pageHeight="1100" math="0" shadow="0">
            <root>
                <mxCell id="MZ9mPeRdr4ArJhmWgFYx-0"/>
                <mxCell id="MZ9mPeRdr4ArJhmWgFYx-1" parent="MZ9mPeRdr4ArJhmWgFYx-0"/>
                <mxCell id="MZ9mPeRdr4ArJhmWgFYx-2" value="" style="rounded=0;whiteSpace=wrap;html=1;" vertex="1" parent="MZ9mPeRdr4ArJhmWgFYx-1">
                    <mxGeometry x="80" y="80" width="400" height="300" as="geometry"/>
                </mxCell>
                <mxCell id="MZ9mPeRdr4ArJhmWgFYx-3" value="&lt;span style=&quot;color: rgb(255 , 255 , 255) ; font-family: &amp;#34;roboto&amp;#34; , &amp;#34;helvetica&amp;#34; , &amp;#34;arial&amp;#34; , sans-serif ; font-size: 20px ; letter-spacing: 0.4px&quot;&gt;‿︵‿︵‿︵ʚ˚̣̣̣͙ɞ・❉・ ʚ˚̣̣̣͙ɞ‿︵‿︵‿︵&lt;/span&gt;" style="rounded=0;whiteSpace=wrap;html=1;" vertex="1" parent="MZ9mPeRdr4ArJhmWgFYx-1">
                    <mxGeometry x="80" y="80" width="400" height="40" as="geometry"/>
                </mxCell>
                <mxCell id="MZ9mPeRdr4ArJhmWgFYx-4" value="Calculate" style="labelPosition=center;verticalLabelPosition=middle;align=center;html=1;shape=mxgraph.basic.button;dx=10;" vertex="1" parent="MZ9mPeRdr4ArJhmWgFYx-1">
                    <mxGeometry x="90" y="240" width="100" height="40" as="geometry"/>
                </mxCell>
                <mxCell id="MZ9mPeRdr4ArJhmWgFYx-5" value="Enter your age to find&amp;nbsp; out!" style="text;html=1;strokeColor=none;fillColor=none;align=center;verticalAlign=middle;whiteSpace=wrap;rounded=0;labelBackgroundColor=none;" vertex="1" parent="MZ9mPeRdr4ArJhmWgFYx-1">
                    <mxGeometry x="70" y="160" width="180" height="30" as="geometry"/>
                </mxCell>
                <mxCell id="MZ9mPeRdr4ArJhmWgFYx-6" value="What movies can you watch" style="text;strokeColor=none;fillColor=none;html=1;fontSize=24;fontStyle=1;verticalAlign=middle;align=center;labelBackgroundColor=none;" vertex="1" parent="MZ9mPeRdr4ArJhmWgFYx-1">
                    <mxGeometry x="200" y="130" width="100" height="40" as="geometry"/>
                </mxCell>
                <mxCell id="MZ9mPeRdr4ArJhmWgFYx-7" value="17" style="rounded=1;arcSize=9;align=left;spacingLeft=5;strokeColor=#4C9AFF;html=1;strokeWidth=2;fontSize=12;labelBackgroundColor=none;" vertex="1" parent="MZ9mPeRdr4ArJhmWgFYx-1">
                    <mxGeometry x="90" y="200" width="220" height="20" as="geometry"/>
                </mxCell>
                <mxCell id="MZ9mPeRdr4ArJhmWgFYx-8" value="You can watch G, PG and R rated movies!" style="text;html=1;strokeColor=none;fillColor=none;align=center;verticalAlign=middle;whiteSpace=wrap;rounded=0;labelBackgroundColor=none;" vertex="1" parent="MZ9mPeRdr4ArJhmWgFYx-1">
                    <mxGeometry x="80" y="290" width="230" height="30" as="geometry"/>
                </mxCell>
            </root>
        </mxGraphModel>
    </diagram>
    <diagram name="Copy of Copy of Page-1" id="NlA-M6RSzlqAoNbAf65C">
        <mxGraphModel dx="520" dy="429" grid="1" gridSize="10" guides="1" tooltips="1" connect="1" arrows="1" fold="1" page="1" pageScale="1" pageWidth="850" pageHeight="1100" math="0" shadow="0">
            <root>
                <mxCell id="HGma9yQWsrMndZcZpiIx-0"/>
                <mxCell id="HGma9yQWsrMndZcZpiIx-1" parent="HGma9yQWsrMndZcZpiIx-0"/>
                <mxCell id="HGma9yQWsrMndZcZpiIx-2" value="" style="rounded=0;whiteSpace=wrap;html=1;" vertex="1" parent="HGma9yQWsrMndZcZpiIx-1">
                    <mxGeometry x="80" y="80" width="400" height="300" as="geometry"/>
                </mxCell>
                <mxCell id="HGma9yQWsrMndZcZpiIx-3" value="&lt;span style=&quot;color: rgb(255 , 255 , 255) ; font-family: &amp;#34;roboto&amp;#34; , &amp;#34;helvetica&amp;#34; , &amp;#34;arial&amp;#34; , sans-serif ; font-size: 20px ; letter-spacing: 0.4px&quot;&gt;‿︵‿︵‿︵ʚ˚̣̣̣͙ɞ・❉・ ʚ˚̣̣̣͙ɞ‿︵‿︵‿︵&lt;/span&gt;" style="rounded=0;whiteSpace=wrap;html=1;" vertex="1" parent="HGma9yQWsrMndZcZpiIx-1">
                    <mxGeometry x="80" y="80" width="400" height="40" as="geometry"/>
                </mxCell>
                <mxCell id="HGma9yQWsrMndZcZpiIx-4" value="Calculate" style="labelPosition=center;verticalLabelPosition=middle;align=center;html=1;shape=mxgraph.basic.button;dx=10;" vertex="1" parent="HGma9yQWsrMndZcZpiIx-1">
                    <mxGeometry x="90" y="240" width="100" height="40" as="geometry"/>
                </mxCell>
                <mxCell id="HGma9yQWsrMndZcZpiIx-5" value="Enter your age to find&amp;nbsp; out!" style="text;html=1;strokeColor=none;fillColor=none;align=center;verticalAlign=middle;whiteSpace=wrap;rounded=0;labelBackgroundColor=none;" vertex="1" parent="HGma9yQWsrMndZcZpiIx-1">
                    <mxGeometry x="70" y="160" width="180" height="30" as="geometry"/>
                </mxCell>
                <mxCell id="HGma9yQWsrMndZcZpiIx-6" value="What movies can you watch" style="text;strokeColor=none;fillColor=none;html=1;fontSize=24;fontStyle=1;verticalAlign=middle;align=center;labelBackgroundColor=none;" vertex="1" parent="HGma9yQWsrMndZcZpiIx-1">
                    <mxGeometry x="200" y="130" width="100" height="40" as="geometry"/>
                </mxCell>
                <mxCell id="HGma9yQWsrMndZcZpiIx-7" value="13" style="rounded=1;arcSize=9;align=left;spacingLeft=5;strokeColor=#4C9AFF;html=1;strokeWidth=2;fontSize=12;labelBackgroundColor=none;" vertex="1" parent="HGma9yQWsrMndZcZpiIx-1">
                    <mxGeometry x="90" y="200" width="220" height="20" as="geometry"/>
                </mxCell>
                <mxCell id="HGma9yQWsrMndZcZpiIx-8" value="You can watch G and PG rated movies!" style="text;html=1;strokeColor=none;fillColor=none;align=center;verticalAlign=middle;whiteSpace=wrap;rounded=0;labelBackgroundColor=none;" vertex="1" parent="HGma9yQWsrMndZcZpiIx-1">
                    <mxGeometry x="80" y="290" width="220" height="30" as="geometry"/>
                </mxCell>
            </root>
        </mxGraphModel>
    </diagram>
    <diagram name="Copy of Page-1" id="dd7oifT3Mo3ZGfb3xt-A">
        <mxGraphModel dx="520" dy="429" grid="1" gridSize="10" guides="1" tooltips="1" connect="1" arrows="1" fold="1" page="1" pageScale="1" pageWidth="850" pageHeight="1100" math="0" shadow="0">
            <root>
                <mxCell id="z6tEMuIWtKriY2I3YVXZ-0"/>
                <mxCell id="z6tEMuIWtKriY2I3YVXZ-1" parent="z6tEMuIWtKriY2I3YVXZ-0"/>
                <mxCell id="z6tEMuIWtKriY2I3YVXZ-2" value="" style="rounded=0;whiteSpace=wrap;html=1;" vertex="1" parent="z6tEMuIWtKriY2I3YVXZ-1">
                    <mxGeometry x="80" y="80" width="400" height="300" as="geometry"/>
                </mxCell>
                <mxCell id="z6tEMuIWtKriY2I3YVXZ-3" value="&lt;span style=&quot;color: rgb(255 , 255 , 255) ; font-family: &amp;#34;roboto&amp;#34; , &amp;#34;helvetica&amp;#34; , &amp;#34;arial&amp;#34; , sans-serif ; font-size: 20px ; letter-spacing: 0.4px&quot;&gt;‿︵‿︵‿︵ʚ˚̣̣̣͙ɞ・❉・ ʚ˚̣̣̣͙ɞ‿︵‿︵‿︵&lt;/span&gt;" style="rounded=0;whiteSpace=wrap;html=1;" vertex="1" parent="z6tEMuIWtKriY2I3YVXZ-1">
                    <mxGeometry x="80" y="80" width="400" height="40" as="geometry"/>
                </mxCell>
                <mxCell id="z6tEMuIWtKriY2I3YVXZ-4" value="Calculate" style="labelPosition=center;verticalLabelPosition=middle;align=center;html=1;shape=mxgraph.basic.button;dx=10;" vertex="1" parent="z6tEMuIWtKriY2I3YVXZ-1">
                    <mxGeometry x="90" y="240" width="100" height="40" as="geometry"/>
                </mxCell>
                <mxCell id="z6tEMuIWtKriY2I3YVXZ-5" value="Enter your age to find&amp;nbsp; out!" style="text;html=1;strokeColor=none;fillColor=none;align=center;verticalAlign=middle;whiteSpace=wrap;rounded=0;labelBackgroundColor=none;" vertex="1" parent="z6tEMuIWtKriY2I3YVXZ-1">
                    <mxGeometry x="70" y="160" width="180" height="30" as="geometry"/>
                </mxCell>
                <mxCell id="z6tEMuIWtKriY2I3YVXZ-6" value="What movies can you watch" style="text;strokeColor=none;fillColor=none;html=1;fontSize=24;fontStyle=1;verticalAlign=middle;align=center;labelBackgroundColor=none;" vertex="1" parent="z6tEMuIWtKriY2I3YVXZ-1">
                    <mxGeometry x="200" y="130" width="100" height="40" as="geometry"/>
                </mxCell>
                <mxCell id="z6tEMuIWtKriY2I3YVXZ-7" value="12" style="rounded=1;arcSize=9;align=left;spacingLeft=5;strokeColor=#4C9AFF;html=1;strokeWidth=2;fontSize=12;labelBackgroundColor=none;" vertex="1" parent="z6tEMuIWtKriY2I3YVXZ-1">
                    <mxGeometry x="90" y="200" width="220" height="20" as="geometry"/>
                </mxCell>
                <mxCell id="z6tEMuIWtKriY2I3YVXZ-8" value="You can watch G rated movies!" style="text;html=1;strokeColor=none;fillColor=none;align=center;verticalAlign=middle;whiteSpace=wrap;rounded=0;labelBackgroundColor=none;" vertex="1" parent="z6tEMuIWtKriY2I3YVXZ-1">
                    <mxGeometry x="80" y="290" width="170" height="30" as="geometry"/>
                </mxCell>
            </root>
        </mxGraphModel>
    </diagram>
    <diagram name="Copy of Copy of Page-1" id="C4DZ4YtcSY5yaPBFX7L-">
        <mxGraphModel dx="520" dy="429" grid="1" gridSize="10" guides="1" tooltips="1" connect="1" arrows="1" fold="1" page="1" pageScale="1" pageWidth="850" pageHeight="1100" math="0" shadow="0">
            <root>
                <mxCell id="GFt2TsVuSIFYuL0GKmxh-0"/>
                <mxCell id="GFt2TsVuSIFYuL0GKmxh-1" parent="GFt2TsVuSIFYuL0GKmxh-0"/>
                <mxCell id="GFt2TsVuSIFYuL0GKmxh-2" value="" style="rounded=0;whiteSpace=wrap;html=1;" vertex="1" parent="GFt2TsVuSIFYuL0GKmxh-1">
                    <mxGeometry x="80" y="80" width="400" height="300" as="geometry"/>
                </mxCell>
                <mxCell id="GFt2TsVuSIFYuL0GKmxh-3" value="&lt;span style=&quot;color: rgb(255 , 255 , 255) ; font-family: &amp;#34;roboto&amp;#34; , &amp;#34;helvetica&amp;#34; , &amp;#34;arial&amp;#34; , sans-serif ; font-size: 20px ; letter-spacing: 0.4px&quot;&gt;‿︵‿︵‿︵ʚ˚̣̣̣͙ɞ・❉・ ʚ˚̣̣̣͙ɞ‿︵‿︵‿︵&lt;/span&gt;" style="rounded=0;whiteSpace=wrap;html=1;" vertex="1" parent="GFt2TsVuSIFYuL0GKmxh-1">
                    <mxGeometry x="80" y="80" width="400" height="40" as="geometry"/>
                </mxCell>
                <mxCell id="GFt2TsVuSIFYuL0GKmxh-4" value="Calculate" style="labelPosition=center;verticalLabelPosition=middle;align=center;html=1;shape=mxgraph.basic.button;dx=10;" vertex="1" parent="GFt2TsVuSIFYuL0GKmxh-1">
                    <mxGeometry x="90" y="240" width="100" height="40" as="geometry"/>
                </mxCell>
                <mxCell id="GFt2TsVuSIFYuL0GKmxh-5" value="Enter your age to find&amp;nbsp; out!" style="text;html=1;strokeColor=none;fillColor=none;align=center;verticalAlign=middle;whiteSpace=wrap;rounded=0;labelBackgroundColor=none;" vertex="1" parent="GFt2TsVuSIFYuL0GKmxh-1">
                    <mxGeometry x="70" y="160" width="180" height="30" as="geometry"/>
                </mxCell>
                <mxCell id="GFt2TsVuSIFYuL0GKmxh-6" value="What movies can you watch" style="text;strokeColor=none;fillColor=none;html=1;fontSize=24;fontStyle=1;verticalAlign=middle;align=center;labelBackgroundColor=none;" vertex="1" parent="GFt2TsVuSIFYuL0GKmxh-1">
                    <mxGeometry x="200" y="130" width="100" height="40" as="geometry"/>
                </mxCell>
                <mxCell id="GFt2TsVuSIFYuL0GKmxh-7" value="Something that could cause an error" style="rounded=1;arcSize=9;align=left;spacingLeft=5;strokeColor=#4C9AFF;html=1;strokeWidth=2;fontSize=12;labelBackgroundColor=none;" vertex="1" parent="GFt2TsVuSIFYuL0GKmxh-1">
                    <mxGeometry x="90" y="200" width="220" height="20" as="geometry"/>
                </mxCell>
                <mxCell id="GFt2TsVuSIFYuL0GKmxh-8" value="Error" style="text;html=1;strokeColor=none;fillColor=none;align=center;verticalAlign=middle;whiteSpace=wrap;rounded=0;labelBackgroundColor=none;" vertex="1" parent="GFt2TsVuSIFYuL0GKmxh-1">
                    <mxGeometry x="20" y="280" width="170" height="30" as="geometry"/>
                </mxCell>
            </root>
        </mxGraphModel>
    </diagram>
</mxfile>